first trial
nRows=23
nColumns=38

# SIMM Motion File Header:
name Sujet_03_velo_80.mvnx
datacolumns 38
datarows 23
otherdata 1
range 3.9000 4.2670
endheader
time pelvis_tilt  pelvis_list  pelvis_rotation  pelvis_tx  pelvis_ty  pelvis_tz  hip_flexion_r  hip_adduction_r  hip_rotation_r  knee_angle_r  ankle_angle_r  subtalar_angle_r  mtp_angle_r  hip_flexion_l  hip_adduction_l  hip_rotation_l  knee_angle_l  ankle_angle_l  subtalar_angle_l  mtp_angle_l  lumbar_extension  lumbar_bending  lumbar_rotation  arm_flex_r  arm_add_r  arm_rot_r  elbow_flex_r  pro_sup_r  wrist_flex_r  wrist_dev_r  arm_flex_l  arm_add_l  arm_rot_l  elbow_flex_l  pro_sup_l  wrist_flex_l  wrist_dev_l
3.9000	-19.9715	-2.7649	89.5380	0.0000	1.2500	-0.0000	80.8708	3.7337	-4.7197	80.7040	8.6781	-3.8591	0.0000	57.6047	-10.0685	-4.2798	73.8894	-4.4382	2.3694	-0.0000	-15.2946	-1.0639	-0.0097	75.5933	10.3455	14.4285	-0.6101	67.3080	-20.0136	-15.9590	79.0613	5.4757	15.1206	1.5369	74.8902	-26.5342	-15.1135	
3.9170	-19.9086	-2.4374	89.7225	0.0000	1.2500	-0.0000	78.1084	3.7039	-5.3670	75.8702	7.1705	-3.0714	0.0000	59.4861	-10.3457	-3.6739	78.3309	-3.0517	2.4741	-0.0000	-15.2668	-1.1818	-0.1027	75.5642	10.3742	14.3138	-0.6999	67.3821	-19.9276	-15.8905	78.9135	5.5162	14.9487	1.5798	74.9975	-26.5017	-15.0898	
3.9340	-19.9082	-2.0881	89.9279	0.0000	1.2500	-0.0000	75.0229	3.6880	-6.0457	70.6644	5.3118	-2.1452	-0.0000	61.5674	-10.6060	-2.7676	82.8400	-1.2492	2.3847	0.0000	-15.2174	-1.3046	-0.2137	75.5748	10.4323	14.0759	-0.8229	67.5648	-19.8172	-15.8018	78.7030	5.6806	14.8556	1.6568	74.9652	-26.4655	-15.0792	
3.9500	-19.9348	-1.7595	-89.7835	0.0000	1.2500	-0.0000	71.8410	3.6606	-6.4496	65.6033	3.3794	-1.2542	0.0000	63.8415	-10.8338	-1.7647	87.1751	0.5394	2.2628	0.0000	-15.1624	-1.3925	-0.3437	75.5636	10.4784	13.8596	-0.9497	67.7167	-19.6740	-15.7140	78.5240	5.8894	14.8391	1.6965	74.8798	-26.4656	-15.0940	
3.9670	-19.9998	-1.4551	-89.3947	0.0000	1.2500	-0.0000	68.5382	3.5583	-6.4909	60.6909	1.3761	-0.3802	-0.0000	66.3455	-11.0457	-0.6026	91.3505	2.3036	2.1972	0.0000	-15.0985	-1.4411	-0.4972	75.5156	10.5263	13.7050	-1.1032	67.7858	-19.4733	-15.6275	78.4094	6.1111	14.9582	1.6662	74.7238	-26.5266	-15.1472	
3.9830	-20.0906	-1.1706	-88.9217	0.0000	1.2500	-0.0000	65.1360	3.4087	-6.2790	55.9409	-0.6995	0.4586	-0.0000	69.0464	-11.1934	0.6455	95.3457	4.0538	2.1001	0.0000	-15.0288	-1.4550	-0.6700	75.4458	10.5626	13.5722	-1.2608	67.8235	-19.2395	-15.5414	78.3265	6.3769	15.1541	1.5995	74.5146	-26.6241	-15.2260	
4.0000	-20.1349	-0.9374	-88.3519	0.0000	1.2500	-0.0000	61.9262	3.3042	-5.7943	51.8967	-2.5738	1.0307	0.0000	71.8187	-11.1955	1.5631	98.8358	5.3962	1.8645	0.0000	-14.9787	-1.4078	-0.8499	75.3377	10.5053	13.4857	-1.3261	67.8468	-19.0383	-15.4743	78.2709	6.7010	15.2467	1.5223	74.3905	-26.7240	-15.3041	
4.0170	-20.1006	-0.7819	-87.6255	0.0000	1.2500	-0.0000	58.9521	3.2600	-4.8738	48.7366	-4.1892	1.2090	0.0000	74.6785	-11.0514	1.9875	101.7283	6.1635	1.4445	-0.0000	-14.9578	-1.2670	-1.0393	75.1683	10.2903	13.4561	-1.2325	67.8658	-18.8974	-15.4372	78.2518	7.1481	15.1219	1.4366	74.4382	-26.8180	-15.3767	
4.0330	-20.0206	-0.6801	-86.8037	0.0000	1.2500	-0.0000	56.1592	3.2370	-3.6715	46.2701	-5.6027	1.1248	-0.0000	77.5898	-10.7960	2.0465	104.0865	6.5263	0.8838	-0.0000	-14.9544	-1.0650	-1.2362	74.9607	9.9817	13.4718	-1.0473	67.8706	-18.7895	-15.4197	78.2615	7.6537	14.8933	1.3391	74.5709	-26.9146	-15.4485	
4.0500	-19.9194	-0.5902	-86.0568	0.0000	1.2500	-0.0000	53.6970	3.2715	-2.6213	44.4951	-6.7101	0.9283	-0.0000	80.3440	-10.4403	1.7690	105.8164	6.5956	0.2090	0.0000	-14.9629	-0.8721	-1.4221	74.7670	9.6899	13.5242	-0.8756	67.8499	-18.6985	-15.4096	78.2686	8.0384	14.7221	1.2480	74.6671	-27.0050	-15.5074	
4.0670	-19.7870	-0.4938	-85.4001	0.0000	1.2500	-0.0000	51.5779	3.4220	-1.8566	43.4007	-7.4754	0.5802	0.0000	82.9532	-9.9636	1.0090	106.9012	6.3657	-0.6851	-0.0000	-14.9870	-0.6996	-1.6010	74.5838	9.4193	13.6618	-0.7255	67.7633	-18.6207	-15.4068	78.2555	8.2257	14.6795	1.1710	74.6764	-27.0859	-15.5447	
4.0830	-19.6339	-0.4100	-84.8187	0.0000	1.2500	-0.0000	49.7941	3.6536	-1.2205	43.0069	-7.9349	0.1076	0.0000	85.4064	-9.4456	-0.0846	107.3812	5.8379	-1.6918	-0.0000	-15.0237	-0.5359	-1.7688	74.4150	9.1652	13.8364	-0.5888	67.6514	-18.5597	-15.4114	78.2381	8.2919	14.6941	1.1011	74.6494	-27.1605	-15.5690	
4.1000	-19.5154	-0.3508	-84.4362	0.0000	1.2500	-0.0000	48.4737	3.8737	-0.7065	43.3703	-8.0861	-0.2489	-0.0000	87.4729	-9.0181	-0.9985	107.2468	5.1376	-2.4721	0.0000	-15.0604	-0.4176	-1.8940	74.3229	9.0245	13.8959	-0.5458	67.6260	-18.5102	-15.4112	78.2350	8.2870	14.7140	1.0355	74.6155	-27.2308	-15.5937	
4.1170	-19.4500	-0.3330	-84.3358	0.0000	1.2500	-0.0000	47.6461	4.0874	-0.3554	44.5540	-7.8066	-0.3902	0.0000	89.1449	-8.6909	-1.5780	106.4694	4.2406	-2.8857	-0.0000	-15.0954	-0.3634	-1.9553	74.3465	9.0551	13.7394	-0.6559	67.7656	-18.4680	-15.3981	78.2430	8.1988	14.7299	0.9867	74.5754	-27.3058	-15.6232	
4.1330	-19.4197	-0.3381	-84.4335	0.0000	1.2500	-0.0000	47.2851	4.2926	-0.1210	46.4941	-7.2130	-0.4238	-0.0000	90.4417	-8.4202	-1.9357	105.0806	3.1802	-3.0815	-0.0000	-15.1317	-0.3545	-1.9739	74.4464	9.1992	13.4683	-0.8589	67.9916	-18.4372	-15.3803	78.2651	8.0394	14.7512	0.9422	74.5286	-27.3766	-15.6533	
4.1500	-19.4247	-0.3242	-84.6015	0.0000	1.2500	-0.0000	47.4347	4.3826	0.1282	49.0504	-6.6560	-0.4127	-0.0000	91.1721	-8.2183	-1.9481	103.1319	2.1722	-3.1599	-0.0000	-15.1632	-0.3719	-1.9820	74.5658	9.3812	13.2343	-1.0575	68.1804	-18.4245	-15.3704	78.3281	7.8956	14.7543	0.8613	74.5029	-27.4179	-15.6846	
4.1670	-19.4774	-0.2500	-84.8176	0.0000	1.2500	-0.0000	48.1926	4.3125	0.4515	52.2958	-6.2897	-0.3993	0.0000	91.2474	-8.0995	-1.3922	100.5397	1.2527	-3.1217	-0.0000	-15.1928	-0.4282	-1.9894	74.7047	9.5993	13.1006	-1.2309	68.2646	-18.4323	-15.3735	78.4809	7.8042	14.7163	0.7139	74.5311	-27.4153	-15.7197	
4.1830	-19.5657	-0.1574	-85.1040	0.0000	1.2500	-0.0000	49.4645	4.1433	0.7899	56.1569	-5.9632	-0.3286	-0.0000	90.7490	-8.0479	-0.4899	97.3677	0.3841	-2.9679	0.0000	-15.2174	-0.5108	-1.9865	74.8633	9.8554	13.0036	-1.4008	68.3116	-18.4583	-15.3846	78.6748	7.7281	14.6606	0.5300	74.5800	-27.3831	-15.7560	
4.2000	-19.6514	-0.1295	-85.3986	0.0000	1.2500	-0.0000	51.0060	3.9224	1.0959	60.2746	-5.5676	-0.1226	-0.0000	89.7427	-8.0307	0.2094	93.8821	-0.3298	-2.8005	0.0000	-15.2223	-0.5621	-1.9765	74.9853	10.0796	12.9053	-1.5340	68.4004	-18.5008	-15.4006	78.7909	7.6432	14.6321	0.3589	74.5797	-27.3394	-15.7861	
4.2170	-19.7212	-0.1982	-85.6864	0.0000	1.2500	-0.0000	52.7706	3.6302	1.3995	64.6062	-5.1032	0.3085	0.0000	88.2065	-8.0368	0.5739	90.1776	-0.7238	-2.7016	0.0000	-15.2008	-0.5595	-1.9677	75.0547	10.2538	12.7695	-1.6267	68.5849	-18.5672	-15.4231	78.7788	7.5434	14.6504	0.1989	74.4920	-27.2877	-15.8126	
4.2330	-19.7872	-0.3317	-85.9826	0.0000	1.2500	-0.0000	54.8060	3.2865	1.6726	69.2123	-4.5640	0.8626	-0.0000	86.1653	-8.0768	0.7264	86.1618	-0.9609	-2.5951	0.0000	-15.1600	-0.5254	-1.9514	75.0869	10.3960	12.6328	-1.6829	68.8115	-18.6501	-15.4503	78.6887	7.4353	14.6955	0.0504	74.3548	-27.2244	-15.8329	
4.2500	-19.8511	-0.5169	-86.2708	0.0000	1.2500	-0.0000	57.0041	2.9782	1.7752	73.8881	-3.8331	1.3322	-0.0000	83.7620	-8.1265	0.5033	81.8320	-1.4327	-2.3360	-0.0000	-15.1063	-0.4695	-1.9042	75.0721	10.4910	12.5668	-1.6811	68.9991	-18.7254	-15.4747	78.5527	7.3138	14.7537	-0.0339	74.2121	-27.1569	-15.8320	
4.2670	-19.9135	-0.7599	-86.5265	0.0000	1.2500	-0.0000	59.3353	2.7062	1.6245	78.6819	-2.6959	1.6637	-0.0000	80.9721	-8.1450	-0.2825	77.0493	-2.3636	-1.7903	-0.0000	-15.0328	-0.3848	-1.8132	74.9711	10.5102	12.6207	-1.5764	69.1138	-18.7849	-15.4887	78.3480	7.1775	14.8356	-0.0142	74.0526	-27.0809	-15.7944	
